<?xml version="1.0" standalone="no"?>
<!DOCTYPE svg PUBLIC "-//W3C//DTD SVG 20010904//EN"
 "http://www.w3.org/TR/2001/REC-SVG-20010904/DTD/svg10.dtd">
<svg version="1.0" xmlns="http://www.w3.org/2000/svg"
 width="965.000000pt" height="965.000000pt" viewBox="0 0 965.000000 965.000000"
 preserveAspectRatio="xMidYMid meet">
<metadata>
Created by potrace 1.11, written by Peter Selinger 2001-2013
</metadata>
<g transform="translate(0.000000,965.000000) scale(0.100000,-0.100000)"
fill="#000000" stroke="none">
<path d="M3939 8826 c-2 -2 -51 -7 -109 -10 -106 -7 -118 -8 -224 -20 -74 -8
-109 -13 -216 -32 -47 -9 -98 -18 -115 -20 -16 -3 -48 -10 -70 -16 -22 -5 -48
-12 -57 -13 -45 -9 -220 -59 -283 -82 -38 -13 -74 -26 -80 -27 -5 -2 -21 -8
-35 -13 -14 -6 -45 -19 -70 -29 -148 -59 -371 -185 -500 -282 -140 -106 -289
-245 -444 -417 -53 -58 -194 -248 -249 -335 -97 -153 -231 -461 -262 -600 -50
-234 -57 -284 -60 -475 -3 -196 6 -290 45 -482 22 -104 92 -328 123 -388 11
-22 19 -41 18 -42 -3 -7 75 -164 133 -267 190 -335 443 -620 822 -924 16 -13
70 -52 119 -87 292 -204 608 -366 950 -485 146 -50 523 -152 537 -144 3 2 13
24 21 48 l15 45 -70 36 c-155 81 -391 242 -549 376 -73 62 -246 232 -304 299
-125 146 -253 338 -326 490 -81 167 -98 213 -132 340 -23 85 -33 131 -52 250
-6 41 -7 285 -1 316 2 12 7 45 11 75 4 30 9 57 11 60 2 3 6 21 9 40 31 175
168 426 321 588 263 279 596 449 1114 571 134 31 143 33 265 55 44 8 89 17
100 19 22 4 77 12 140 21 22 3 54 7 70 10 62 10 109 15 164 20 31 3 70 7 86
10 27 3 112 11 230 20 345 27 1150 27 1515 0 25 -1 92 -6 150 -9 58 -4 119 -9
135 -11 17 -3 62 -7 100 -10 39 -2 88 -6 110 -9 22 -3 69 -8 105 -11 36 -3 79
-8 95 -10 17 -2 73 -9 125 -15 52 -6 109 -13 125 -15 55 -7 130 -17 155 -21
14 -2 43 -6 65 -9 121 -17 384 -58 445 -70 12 -2 74 -13 138 -25 169 -29 162
-28 347 -66 189 -39 605 -133 615 -139 3 -2 17 -6 31 -8 13 -3 86 -21 162 -41
76 -20 140 -36 142 -36 1 0 13 19 25 42 17 33 19 43 8 53 -162 143 -529 405
-751 536 -32 19 -84 49 -115 67 -150 88 -323 183 -482 262 -130 65 -181 90
-335 160 -38 18 -95 44 -125 58 -30 14 -59 26 -65 27 -5 2 -53 21 -105 43
-452 192 -992 372 -1490 498 -102 25 -194 48 -205 50 -11 2 -81 17 -155 33
-118 26 -202 42 -290 57 -14 3 -47 9 -75 14 -85 17 -272 43 -470 65 -27 4 -66
8 -85 10 -19 3 -69 7 -110 11 -41 3 -93 8 -115 10 -57 5 -711 15 -716 10z"/>
<path d="M5735 6010 c-3 -5 -12 -27 -19 -49 l-14 -39 110 -61 c175 -97 354
-222 533 -371 73 -61 268 -263 337 -350 228 -287 391 -623 434 -895 3 -22 7
-42 9 -45 5 -8 18 -195 18 -250 0 -202 -63 -452 -156 -620 -30 -55 -77 -130
-87 -140 -3 -3 -18 -23 -34 -45 -84 -114 -278 -285 -424 -374 -86 -52 -289
-146 -397 -184 -143 -50 -437 -128 -575 -151 -31 -5 -98 -17 -125 -23 -11 -2
-36 -6 -55 -8 -19 -3 -57 -10 -85 -15 -27 -5 -75 -12 -106 -15 -31 -3 -67 -8
-80 -10 -13 -3 -53 -7 -89 -11 -36 -3 -76 -7 -90 -9 -183 -26 -519 -40 -985
-40 -368 1 -518 4 -760 20 -133 8 -245 16 -275 20 -19 2 -73 7 -120 10 -47 4
-96 8 -110 10 -14 2 -54 7 -90 10 -74 7 -116 12 -180 19 -25 3 -65 8 -90 11
-77 9 -112 14 -220 29 -58 9 -125 18 -150 21 -25 3 -70 9 -100 15 -30 5 -84
14 -120 20 -114 18 -125 20 -146 24 -12 2 -37 7 -55 10 -19 3 -72 13 -119 21
-47 9 -107 20 -135 25 -27 5 -75 14 -105 20 -30 6 -66 14 -80 16 -71 14 -396
86 -470 105 -47 11 -96 23 -110 25 -14 3 -39 9 -56 15 -17 5 -41 12 -53 14
-11 3 -30 7 -41 9 -11 3 -63 17 -116 31 -105 29 -98 30 -131 -30 -15 -29 -15
-29 23 -62 207 -178 637 -470 939 -638 28 -15 91 -50 140 -78 210 -116 553
-280 875 -417 313 -133 857 -323 1175 -410 44 -12 100 -28 125 -36 51 -15 394
-101 455 -114 232 -48 391 -78 495 -95 19 -3 60 -10 90 -15 30 -5 75 -12 100
-14 25 -3 56 -8 70 -10 42 -7 120 -17 164 -21 22 -3 66 -7 96 -11 30 -3 80 -8
110 -10 30 -2 102 -7 160 -11 137 -10 645 -10 780 0 127 9 240 21 315 32 79
12 112 18 205 36 191 36 477 118 605 174 17 7 53 22 80 34 28 12 57 26 65 31
8 5 34 18 58 29 114 54 325 193 431 286 184 161 309 290 426 440 266 341 418
696 472 1105 10 74 10 380 0 455 -76 577 -340 1091 -796 1545 -153 152 -292
271 -421 360 -19 14 -39 28 -45 33 -58 49 -314 200 -476 282 -268 135 -704
288 -913 321 -22 3 -50 10 -62 14 -14 6 -26 5 -29 0z"/>
<path d="M4648 5784 c-382 -61 -705 -358 -789 -724 -6 -25 -13 -54 -16 -65 -3
-11 -7 -78 -9 -150 -8 -306 100 -545 349 -771 107 -97 326 -191 492 -213 95
-12 252 -5 335 14 3 1 21 5 40 9 19 5 41 13 48 18 6 6 12 8 12 5 0 -14 152 59
227 109 276 183 438 490 434 824 -1 47 -4 99 -7 115 -2 17 -7 39 -9 51 -5 32
-46 175 -55 193 -66 135 -123 219 -205 303 -220 226 -539 332 -847 282z"/>
</g>
</svg>
