<?xml version="1.0" standalone="no"?>
<!DOCTYPE svg PUBLIC "-//W3C//DTD SVG 20010904//EN"
 "http://www.w3.org/TR/2001/REC-SVG-20010904/DTD/svg10.dtd">
<svg version="1.0" xmlns="http://www.w3.org/2000/svg"
 width="316.000000pt" height="316.000000pt" viewBox="0 0 316.000000 316.000000"
 preserveAspectRatio="xMidYMid meet">
<metadata>
Created by potrace 1.11, written by Peter Selinger 2001-2013
</metadata>
<g transform="translate(0.000000,316.000000) scale(0.100000,-0.100000)"
fill="#000000" stroke="none">
<path d="M0 1580 l0 -1580 1580 0 1580 0 0 1580 0 1580 -1580 0 -1580 0 0
-1580z m1060 1015 l-64 -65 -73 0 -73 0 0 -205 0 -205 -70 0 -70 0 0 205 0
205 -135 0 -135 0 0 65 0 65 342 0 342 0 -64 -65z m716 49 c19 -9 44 -31 57
-48 20 -28 22 -44 25 -193 4 -190 -4 -218 -73 -258 -41 -25 -45 -25 -280 -25
-223 0 -240 1 -275 21 -68 39 -80 75 -80 247 0 83 4 161 9 174 11 28 59 77 86
89 11 4 127 8 258 8 201 1 244 -2 273 -15z m851 -10 c98 -71 98 -277 0 -348
-27 -20 -45 -21 -268 -24 l-239 -3 0 -42 c-1 -41 -2 -43 -70 -84 l-70 -42 0
285 0 285 309 -3 c294 -3 311 -4 338 -24z m-357 -646 c0 -7 -25 -42 -56 -78
-90 -105 -195 -260 -176 -260 5 0 26 25 47 55 84 123 229 229 303 223 31 -3
40 -9 55 -39 55 -114 43 -309 -29 -451 -13 -26 -24 -56 -24 -68 0 -35 -136
-160 -221 -204 -79 -39 -175 -57 -233 -42 -44 11 -94 63 -116 123 -82 220 22
516 235 669 96 68 215 108 215 72z m-513 -299 l-32 -71 -185 6 c-102 3 -299 6
-437 6 l-253 0 0 65 0 65 469 0 469 0 -31 -71z m883 6 l0 -65 -31 0 c-30 0
-31 2 -25 31 3 17 6 47 6 65 0 30 3 34 25 34 24 0 25 -2 25 -65z m-1622 -757
l-3 -372 -125 -89 -125 -88 -6 243 c-3 134 -7 291 -8 350 l-1 107 -107 3 -106
3 116 108 117 107 125 0 125 0 -2 -372z m522 137 l0 -235 370 0 370 0 0 150 0
150 86 85 86 85 54 0 54 0 0 -450 0 -450 -99 0 -99 0 -40 113 -40 112 -413 5
-414 5 -55 31 c-60 33 -112 99 -130 162 -5 20 -10 135 -10 255 l0 217 140 0
140 0 0 -235z m-212 -597 c17 -17 15 -53 -3 -68 -13 -11 -13 -16 1 -42 8 -16
14 -34 12 -40 -2 -6 -12 8 -22 31 -23 50 -36 52 -36 6 0 -19 -4 -35 -10 -35
-6 0 -10 33 -10 80 l0 80 28 0 c15 0 33 -5 40 -12z m94 -60 c3 -65 5 -73 23
-73 18 0 20 8 23 73 2 39 7 72 12 72 17 0 12 -123 -6 -148 -36 -51 -74 -8 -74
85 0 87 18 79 22 -9z m208 57 c15 -18 -1 -20 -18 -3 -20 20 -42 -10 -42 -57 0
-56 8 -75 31 -75 26 0 27 56 2 63 -11 3 -7 5 10 6 25 1 27 -2 27 -38 0 -31 -4
-40 -21 -44 -44 -12 -69 20 -69 86 0 61 49 99 80 62z m150 0 c7 -8 10 -25 7
-37 -3 -11 -1 -30 5 -41 7 -14 7 -27 -1 -43 -9 -20 -18 -24 -53 -23 -24 0 -37
3 -30 6 8 3 12 28 12 73 0 45 -4 70 -12 73 -7 3 3 6 23 6 21 1 42 -5 49 -14z
m99 -27 l19 -43 18 44 c10 25 19 40 21 34 3 -7 -3 -26 -12 -43 -9 -17 -20 -50
-25 -73 l-8 -42 -1 38 c-1 21 -10 55 -21 77 -21 41 -24 50 -15 50 3 0 14 -19
24 -42z"/>
<path d="M1294 2517 c-2 -7 -3 -69 -2 -138 l3 -124 210 0 210 0 3 138 3 137
-211 0 c-164 0 -212 -3 -216 -13z"/>
<path d="M2120 2455 l0 -75 213 2 212 3 3 73 3 72 -216 0 -215 0 0 -75z"/>
<path d="M1280 445 c0 -29 3 -36 18 -33 24 5 24 61 0 66 -15 3 -18 -4 -18 -33z"/>
<path d="M1730 450 c0 -25 4 -31 18 -28 11 2 17 12 17 28 0 16 -6 26 -17 28
-14 3 -18 -3 -18 -28z"/>
<path d="M1730 375 c0 -32 3 -36 23 -33 17 2 22 10 22 33 0 23 -5 31 -22 33
-20 3 -23 -1 -23 -33z"/>
</g>
</svg>
